<?xml version="1.0" encoding="UTF-8" standalone="no"?>
<!-- Created with Inkscape (http://www.inkscape.org/) -->

<svg
   xmlns:dc="http://purl.org/dc/elements/1.1/"
   xmlns:cc="http://creativecommons.org/ns#"
   xmlns:rdf="http://www.w3.org/1999/02/22-rdf-syntax-ns#"
   xmlns:svg="http://www.w3.org/2000/svg"
   xmlns="http://www.w3.org/2000/svg"
   xmlns:sodipodi="http://sodipodi.sourceforge.net/DTD/sodipodi-0.dtd"
   xmlns:inkscape="http://www.inkscape.org/namespaces/inkscape"
   width="37.071793mm"
   height="11.864088mm"
   viewBox="0 0 131.35675 42.038107"
   id="svg11950"
   version="1.1"
   inkscape:version="0.91 r13725"
   sodipodi:docname="ca.svg">
  <defs
     id="defs11952">
    <clipPath
       clipPathUnits="userSpaceOnUse"
       id="clipPath10129">
      <path
         d="m 198.373,103.253 133.229,0 0,53.859 -133.229,0 0,-53.859 z"
         id="path10131"
         inkscape:connector-curvature="0" />
    </clipPath>
  </defs>
  <sodipodi:namedview
     id="base"
     pagecolor="#ffffff"
     bordercolor="#666666"
     borderopacity="1.0"
     inkscape:pageopacity="0.0"
     inkscape:pageshadow="2"
     inkscape:zoom="0.35"
     inkscape:cx="819.24981"
     inkscape:cy="-347.55238"
     inkscape:document-units="px"
     inkscape:current-layer="layer1"
     showgrid="false"
     fit-margin-top="0"
     fit-margin-left="0"
     fit-margin-right="0"
     fit-margin-bottom="0"
     inkscape:window-width="1920"
     inkscape:window-height="1138"
     inkscape:window-x="-8"
     inkscape:window-y="-8"
     inkscape:window-maximized="1" />
  <metadata
     id="metadata11955">
    <rdf:RDF>
      <cc:Work
         rdf:about="">
        <dc:format>image/svg+xml</dc:format>
        <dc:type
           rdf:resource="http://purl.org/dc/dcmitype/StillImage" />
        <dc:title></dc:title>
      </cc:Work>
    </rdf:RDF>
  </metadata>
  <g
     inkscape:label="Layer 1"
     inkscape:groupmode="layer"
     id="layer1"
     transform="translate(879.96409,-142.77172)">
    <g
       transform="matrix(1.25,0,0,-1.25,-1145.3051,327.38872)"
       id="g10125">
      <g
         id="g10127"
         clip-path="url(#clipPath10129)">
        <g
           id="g10133"
           transform="translate(219.2177,120.6983)">
          <path
             d="m 0,0 c 0,0 -0.012,-0.871 0.002,-1.34 -1.344,0.46 -3.426,0.929 -4.528,-0.304 -0.528,-0.609 -0.644,-1.587 -0.324,-2.336 0.376,-0.948 1.392,-1.281 2.349,-1.286 0.866,-0.019 1.692,0.165 2.472,0.402 l 0.001,-1.307 c -1.803,-0.598 -4.402,-0.831 -5.887,0.633 -0.594,0.596 -0.938,1.345 -1.015,2.177 -0.049,0.494 0.029,0.982 0.145,1.427 0.041,0.109 0.06,0.203 0.123,0.309 l 0.051,0.102 C -5.75,0.058 -4.034,0.614 -2.283,0.489 -1.481,0.431 -0.726,0.252 0,0"
             style="fill:#ffffff;fill-opacity:1;fill-rule:nonzero;stroke:none"
             id="path10135"
             inkscape:connector-curvature="0" />
        </g>
        <g
           id="g10137"
           transform="translate(235.3659,119.8363)">
          <path
             d="m 0,0 -4.873,-0.001 0,-4.392 c 0,0 4.98,-0.003 5.113,0.005 l -0.532,-1.21 -6.31,-0.001 0,6.788 6.191,0.002 L 0,0 Z"
             style="fill:#ffffff;fill-opacity:1;fill-rule:nonzero;stroke:none"
             id="path10139"
             inkscape:connector-curvature="0" />
        </g>
        <g
           id="g10141"
           transform="translate(234.4527,118.2315)">
          <path
             d="m 0,0 c -0.287,-0.404 -0.461,-0.929 -0.982,-1.063 l -0.42,-0.033 -2.472,0 c 0.199,0.33 0.379,0.641 0.593,0.937 0.21,0.248 0.525,0.238 0.836,0.244 L 0.041,0.083 0,0 Z"
             style="fill:#ffffff;fill-opacity:1;fill-rule:nonzero;stroke:none"
             id="path10143"
             inkscape:connector-curvature="0" />
        </g>
        <g
           id="g10145"
           transform="translate(224.6596,121.0331)">
          <path
             d="M 0,0 C 0.968,-0.048 2.053,-0.243 2.486,-1.213 2.777,-1.779 2.734,-2.593 2.389,-3.119 2.111,-3.54 1.212,-3.894 1.212,-3.894 l 1.862,-2.898 -1.96,-0.001 -1.568,2.406 -0.053,0.032 -1.633,-0.002 c 0,0 0.337,0.869 0.729,1.152 0.809,0.147 2.077,-0.182 2.259,0.914 0.01,0.296 -0.047,0.598 -0.302,0.78 -0.369,0.283 -0.881,0.216 -1.344,0.258 l -1.74,-0.004 C -2.54,-1.862 -2.537,-6.792 -2.537,-6.792 -3.15,-6.793 -3.707,-6.793 -4.31,-6.793 L -4.31,0 0,0 Z"
             style="fill:#ffffff;fill-opacity:1;fill-rule:nonzero;stroke:none"
             id="path10147"
             inkscape:connector-curvature="0" />
        </g>
        <g
           id="g10149"
           transform="translate(232.2925,122.5403)">
          <path
             d="m 0,0 -0.891,-1.246 1.298,0 L 1.622,0 0,0 Z"
             style="fill:#ffffff;fill-opacity:1;fill-rule:nonzero;stroke:none"
             id="path10151"
             inkscape:connector-curvature="0" />
        </g>
        <g
           id="g10153"
           transform="translate(241.2629,119.4587)">
          <path
             d="m 0,0 c -0.826,0.448 -1.854,0.351 -2.847,0.346 l 0,-4.385 c 1.395,0.004 3.049,-0.182 3.645,1.279 0.286,0.687 0.233,1.628 -0.205,2.225 C 0.426,-0.32 0.225,-0.129 0,0 M 2.506,-0.397 C 3.022,-1.541 2.869,-3.102 2.007,-4.037 1.145,-5.003 -0.048,-5.205 -1.307,-5.224 l -3.291,0 0.004,6.8 2.037,0.002 c 1.944,0.009 4.204,0.032 5.063,-1.975"
             style="fill:#ffffff;fill-opacity:1;fill-rule:nonzero;stroke:none"
             id="path10155"
             inkscape:connector-curvature="0" />
        </g>
        <path
           d="m 245.425,114.232 1.808,0 0,6.801 -1.808,0 0,-6.801 z"
           style="fill:#ffffff;fill-opacity:1;fill-rule:nonzero;stroke:none"
           id="path10157"
           inkscape:connector-curvature="0" />
        <g
           id="g10159"
           transform="translate(255.2569,121.0365)">
          <path
             d="M 0,0 C -0.138,-0.317 -0.2,-0.686 -0.415,-0.982 -0.563,-1.15 -0.792,-1.168 -0.993,-1.191 l -1.749,0 0,-5.61 c -0.618,0.003 -1.153,0.001 -1.757,0 l -0.002,5.611 -2.642,0 c 0,0 0.351,0.787 0.533,1.19 L 0,0 Z"
             style="fill:#ffffff;fill-opacity:1;fill-rule:nonzero;stroke:none"
             id="path10161"
             inkscape:connector-curvature="0" />
        </g>
        <g
           id="g10163"
           transform="translate(262.8569,121.0365)">
          <path
             d="m 0,0 c 0.281,-0.646 3.192,-6.797 3.192,-6.797 l -1.903,0 -2.53,5.586 C -1.436,-1.608 -2.5,-4.048 -2.5,-4.048 c 0,0 2.157,0.002 2.361,0 C -0.383,-4.487 -0.57,-5.204 -1.178,-5.27 L -3.092,-5.278 C -3.352,-5.766 -3.568,-6.307 -3.815,-6.8 L -5.593,-6.797 -2.361,0 0,0 Z"
             style="fill:#ffffff;fill-opacity:1;fill-rule:nonzero;stroke:none"
             id="path10165"
             inkscape:connector-curvature="0" />
        </g>
        <g
           id="g10167"
           transform="translate(273.3863,120.7239)">
          <path
             d="m 0,0 c 0,-0.472 0.001,-0.871 0.001,-1.315 -1.371,0.391 -3.224,0.79 -4.522,-0.019 -0.772,-0.549 -1.032,-1.502 -0.816,-2.408 0.107,-0.48 0.403,-0.958 0.852,-1.236 0.954,-0.61 2.24,-0.453 3.322,-0.248 l -10e-4,1.48 -2.17,0 c 0.119,0.363 0.257,0.714 0.496,1.022 0.112,0.122 0.266,0.15 0.415,0.177 0.984,-0.004 1.874,-0.002 2.871,-0.003 l 0,-3.571 c -1.985,-0.503 -4.741,-0.968 -6.511,0.357 -1.006,0.821 -1.325,2.02 -1.192,3.285 0.134,1.165 1.166,2.232 2.262,2.579 C -3.437,0.643 -1.537,0.493 0,0"
             style="fill:#ffffff;fill-opacity:1;fill-rule:nonzero;stroke:none"
             id="path10169"
             inkscape:connector-curvature="0" />
        </g>
        <g
           id="g10171"
           transform="translate(279.6674,121.0331)">
          <path
             d="M 0,0 C 0.966,-0.048 2.052,-0.243 2.483,-1.213 2.776,-1.779 2.733,-2.593 2.387,-3.119 2.109,-3.54 1.209,-3.894 1.209,-3.894 l 1.864,-2.898 -1.961,-0.001 -1.567,2.406 -0.054,0.032 -1.633,-0.002 c 0,0 0.337,0.869 0.729,1.152 0.809,0.147 2.077,-0.182 2.259,0.914 0.011,0.296 -0.047,0.598 -0.302,0.78 -0.368,0.283 -0.88,0.216 -1.344,0.258 l -1.741,-0.004 c -10e-4,-0.605 0.002,-5.535 0.002,-5.535 -0.612,-0.001 -1.169,-0.001 -1.773,-0.001 L -4.311,0 0,0 Z"
             style="fill:#ffffff;fill-opacity:1;fill-rule:nonzero;stroke:none"
             id="path10173"
             inkscape:connector-curvature="0" />
        </g>
        <path
           d="m 283.905,114.232 1.808,0 0,6.801 -1.808,0 0,-6.801 z"
           style="fill:#ffffff;fill-opacity:1;fill-rule:nonzero;stroke:none"
           id="path10175"
           inkscape:connector-curvature="0" />
        <g
           id="g10177"
           transform="translate(293.9035,120.6983)">
          <path
             d="m 0,0 c 0,0 -0.012,-0.871 0.002,-1.34 -1.344,0.46 -3.425,0.929 -4.527,-0.304 -0.528,-0.609 -0.644,-1.587 -0.325,-2.336 0.377,-0.948 1.395,-1.281 2.351,-1.286 0.866,-0.019 1.692,0.165 2.47,0.402 l 0.004,-1.307 c -1.804,-0.598 -4.404,-0.831 -5.888,0.633 -0.595,0.596 -0.937,1.345 -1.017,2.177 -0.047,0.494 0.029,0.982 0.146,1.427 0.042,0.109 0.06,0.203 0.123,0.309 l 0.051,0.102 c 0.861,1.581 2.578,2.137 4.328,2.012 C -1.479,0.431 -0.724,0.252 0,0"
             style="fill:#ffffff;fill-opacity:1;fill-rule:nonzero;stroke:none"
             id="path10179"
             inkscape:connector-curvature="0" />
        </g>
        <g
           id="g10181"
           transform="translate(317.1172,119.8363)">
          <path
             d="m 0,0 -4.872,-0.001 0,-4.392 c 0,0 4.979,-0.003 5.113,0.005 l -0.531,-1.21 -6.312,-0.001 0,6.788 6.191,0.002 L 0,0 Z"
             style="fill:#ffffff;fill-opacity:1;fill-rule:nonzero;stroke:none"
             id="path10183"
             inkscape:connector-curvature="0" />
        </g>
        <g
           id="g10185"
           transform="translate(316.2075,118.2315)">
          <path
             d="m 0,0 c -0.29,-0.404 -0.463,-0.929 -0.984,-1.063 l -0.421,-0.033 -2.472,0 c 0.2,0.33 0.378,0.641 0.594,0.937 0.21,0.248 0.525,0.238 0.835,0.244 L 0.039,0.083 0,0 Z"
             style="fill:#ffffff;fill-opacity:1;fill-rule:nonzero;stroke:none"
             id="path10187"
             inkscape:connector-curvature="0" />
        </g>
        <g
           id="g10189"
           transform="translate(305.8261,115.4549)">
          <path
             d="m 0,0 c 0.26,-0.002 3.948,-0.001 3.948,-0.001 0,0 -0.374,-0.836 -0.547,-1.218 l -5.198,0 -0.003,6.797 c 0.603,0.005 1.186,-0.004 1.799,-0.002 L 0,0 Z"
             style="fill:#ffffff;fill-opacity:1;fill-rule:nonzero;stroke:none"
             id="path10191"
             inkscape:connector-curvature="0" />
        </g>
        <g
           id="g10193"
           transform="translate(299.692,119.8107)">
          <path
             d="m 0,0 c -0.841,0.326 -1.923,0.226 -2.593,-0.415 -0.699,-0.689 -0.832,-1.838 -0.516,-2.757 0.195,-0.664 0.88,-1.168 1.526,-1.315 0.862,-0.173 1.828,0.019 2.402,0.766 0.583,0.799 0.636,2.092 0.119,2.938 C 0.727,-0.436 0.364,-0.147 0,0 M 2.852,-0.621 C 3.407,-1.755 3.278,-3.358 2.465,-4.335 1.368,-5.65 -0.33,-5.879 -1.971,-5.678 c -1.191,0.196 -2.463,0.881 -2.947,2.086 -0.484,1.091 -0.335,2.574 0.397,3.508 1.11,1.382 2.89,1.635 4.617,1.382 C 1.201,1.097 2.35,0.479 2.852,-0.621"
             style="fill:#ffffff;fill-opacity:1;fill-rule:nonzero;stroke:none"
             id="path10195"
             inkscape:connector-curvature="0" />
        </g>
        <g
           id="g10197"
           transform="translate(271.9602,135.2273)">
          <path
             d="m 0,0 3.204,1.716 2.383,-4.95 -3.544,0 c 0,-0.003 -0.682,-0.003 -0.955,0.612 C 0.834,-1.942 0.005,-0.001 0,0"
             style="fill:#ffffff;fill-opacity:1;fill-rule:nonzero;stroke:none"
             id="path10199"
             inkscape:connector-curvature="0" />
        </g>
        <path
           d="m 278.308,128.106 -25.775,0 0,2.306 25.775,0 0,-2.306 z"
           style="fill:#ffffff;fill-opacity:1;fill-rule:nonzero;stroke:none"
           id="path10201"
           inkscape:connector-curvature="0" />
        <g
           id="g10203"
           transform="translate(270.6603,138.6102)">
          <path
             d="m 0,0 c -2.63,-1.347 -5.128,-2.53 -6.472,-2.91 -3.548,-1.022 -7.87,-1.636 -9.423,-0.26 -1.459,1.297 1.912,6.727 8.29,7.936 1.025,0.255 1.637,0.172 1.637,0.164 0,0.008 -0.51,1.996 -0.778,2.248 -0.516,0.532 -0.941,0.701 -1.636,0.614 -1.38,-0.082 -7.254,-1.65 -9.571,-6.544 -1.291,-2.781 0.513,-5.709 1.635,-6.474 0.341,-0.274 3.797,-3.284 11.468,-0.275 7.597,2.949 14.404,7.595 14.41,7.595 l 0,3.108 C 9.557,5.204 6.556,3.485 3.072,1.618 l -2.661,5.901 -3.872,0 L -8.9,-2.635 c 0.005,-0.001 2.677,0.083 4.388,1.374 0.434,0.256 1.655,3.462 2.772,5.619 L 0,0 Z"
             style="fill:#ffffff;fill-opacity:1;fill-rule:nonzero;stroke:none"
             id="path10205"
             inkscape:connector-curvature="0" />
        </g>
        <g
           id="g10207"
           transform="translate(280.2206,145.0226)">
          <path
             d="m 0,0 c -0.006,0.001 -4.056,-2.327 -5.005,-2.683 -0.872,-0.343 -1.213,0.101 -1.295,0.274 -0.172,0.168 -0.685,1.711 -0.682,1.715 -0.003,-0.004 0.253,-0.004 0.766,0.082 0.611,0.175 6.21,3.285 6.216,3.283 L 0,0 Z"
             style="fill:#ffffff;fill-opacity:1;fill-rule:nonzero;stroke:none"
             id="path10209"
             inkscape:connector-curvature="0" />
        </g>
      </g>
    </g>
  </g>
</svg>
