<?xml version="1.0" encoding="utf-8"?>
<svg width="800" height="800" xmlns="http://www.w3.org/2000/svg">

  <defs>
    <linearGradient id="grad1" x1="0%" y1="0%" x2="100%" y2="100%">
      <stop offset="0%" style="stop-color:#861c48;stop-opacity:1" />
      <stop offset="80%" style="stop-color:#d9106f;stop-opacity:1" />
    </linearGradient>
    <linearGradient id="grad2" x1="0%" y1="0%" x2="100%" y2="100%">
      <stop offset="0%" style="stop-color:#d57d18;stop-opacity:1" />
      <stop offset="80%" style="stop-color:#fff878;stop-opacity:1" />
    </linearGradient>
    <linearGradient id="grad3" x1="0%" y1="0%" x2="100%" y2="100%">
      <stop offset="0%" style="stop-color:#009398;stop-opacity:1" />
      <stop offset="80%" style="stop-color:#66c87f;stop-opacity:1" />
    </linearGradient>
  </defs>
  
 
<polygon points="294,20 330,0 470,0 506,20" style="fill:url(#grad3)"/>
<polygon points="294,20 330,0 470,0 506,20" style="fill:url(#grad1)" 
transform="rotate(30 400 400)" />
<polygon points="294,20 330,0 470,0 506,20" style="fill:url(#grad2)" 
transform="rotate(60 400 400)" />
<polygon points="294,20 330,0 470,0 506,20" style="fill:url(#grad1)" 
transform="rotate(90 400 400)" />
<polygon points="294,20 330,0 470,0 506,20" style="fill:url(#grad2)" 
transform="rotate(120 400 400)" />
<polygon points="294,20 330,0 470,0 506,20" style="fill:url(#grad1)" 
transform="rotate(150 400 400)" />
<polygon points="294,20 330,0 470,0 506,20" style="fill:url(#grad2)" 
transform="rotate(180 400 400)" />
<polygon points="294,20 330,0 470,0 506,20" style="fill:url(#grad1)" 
transform="rotate(210 400 400)" />
<polygon points="294,20 330,0 470,0 506,20" style="fill:url(#grad2)" 
transform="rotate(240 400 400)" />
<polygon points="294,20 330,0 470,0 506,20" style="fill:url(#grad1)" 
transform="rotate(270 400 400)" />
<polygon points="294,20 330,0 470,0 506,20" style="fill:url(#grad2)" 
transform="rotate(300 400 400)" />
<polygon points="294,20 330,0 470,0 506,20" style="fill:url(#grad1)" 
transform="rotate(330 400 400)" />
  
 
<polygon points="294,20 506,20 400,400" style="fill:url(#grad3)" />
<polygon points="294,20 506,20 400,400" style="fill:url(#grad1)" 
transform="rotate(30 400 400)" />
<polygon points="294,20 506,20 400,400" style="fill:url(#grad2)" 
transform="rotate(60 400 400)" />
<polygon points="294,20 506,20 400,400" style="fill:url(#grad1)" 
transform="rotate(90 400 400)" />
<polygon points="294,20 506,20 400,400" style="fill:url(#grad2)" 
transform="rotate(120 400 400)" />
<polygon points="294,20 506,20 400,400" style="fill:url(#grad1)" 
transform="rotate(150 400 400)" />
<polygon points="294,20 506,20 400,400" style="fill:url(#grad2)" 
transform="rotate(180 400 400)" />
<polygon points="294,20 506,20 400,400" style="fill:url(#grad1)" 
transform="rotate(210 400 400)" />
<polygon points="294,20 506,20 400,400" style="fill:url(#grad2)" 
transform="rotate(240 400 400)" />
<polygon points="294,20 506,20 400,400" style="fill:url(#grad1)" 
transform="rotate(270 400 400)" />
<polygon points="294,20 506,20 400,400" style="fill:url(#grad2)" 
transform="rotate(300 400 400)" />
<polygon points="294,20 506,20 400,400" style="fill:url(#grad1)" 
transform="rotate(330 400 400)" />

<text x="400" y="140" style="fill:white;text-anchor:middle" font-family="Arial" font-size="50" transform="rotate(-90 400 120)">IPAD</text>

<text x="400" y="180" style="fill:white;text-anchor:middle" font-family="Arial" font-size="50" transform="rotate(60 400 400) rotate(-90 400 160)">BRACELET</text>
<text x="400" y="180" style="fill:white;text-anchor:middle" font-family="Arial" font-size="50" transform="rotate(120 400 400) rotate(-90 400 160)">BRACELET</text>
<text x="400" y="180" style="fill:white;text-anchor:middle" font-family="Arial" font-size="50" transform="rotate(180 400 400) rotate(-90 400 160)">BRACELET</text>
<text x="400" y="180" style="fill:white;text-anchor:middle" font-family="Arial" font-size="50" transform="rotate(240 400 400) rotate(-90 400 160)">BRACELET</text>
<text x="400" y="180" style="fill:white;text-anchor:middle" font-family="Arial" font-size="50" transform="rotate(300 400 400) rotate(-90 400 160)">BRACELET</text>


<text x="400" y="150" style="fill:white;text-anchor:middle" font-family="Arial" font="Arial" font-size="50" transform="rotate(30 400 400) rotate(-90 400 130)">PERDU</text>
<text x="400" y="150" style="fill:white;text-anchor:middle" font-family="Arial" font-size="50" transform="rotate(90 400 400) rotate(-90 400 130)">PERDU</text>
<text x="400" y="150" style="fill:white;text-anchor:middle" font-family="Arial" font-size="50" transform="rotate(150 400 400) rotate(-90 400 130)">PERDU</text>
<text x="400" y="150" style="fill:white;text-anchor:middle" font-family="Arial" font-size="50" transform="rotate(210 400 400) rotate(-90 400 130)">PERDU</text>
<text x="400" y="150" style="fill:white;text-anchor:middle" font-family="Arial" font-size="50" transform="rotate(270 400 400) rotate(-90 400 130)">PERDU</text>
<text x="400" y="150" style="fill:white;text-anchor:middle" font-family="Arial" font-size="50" transform="rotate(330 400 400) rotate(-90 400 130)">PERDU</text>

</svg>